<svg xmlns="http://www.w3.org/2000/svg" width="120" height="120" viewBox="0 0 120 120">
    <g fill="none" fill-rule="evenodd">
        <path d="M0 120L120 120 120 0 0 0z"/>
        <g>
            <path fill="#5B6770" d="M63.032 43.451C57.78 63.905 69.65 68.9 67.548 74.823c-2.107 5.942-18.708 5.663-25.82 5.663-7.62 0-23.698.415-25.776-6.597-1.772-5.985 9.146-7.356 4.976-30.995-4.541-25.728 5.918-37.8 20.8-37.8 14.12 0 28.389 10.765 21.304 38.357" transform="translate(18 15.36)"/>
            <path fill="#FEFEFE" d="M62.603 65.82l-2.14 8.328c-.977 3.978-3.26 7.694-6.737 10.419-3.49 2.734-7.36 3.883-11.731 3.883-4.374 0-8.244-1.15-11.734-3.883-3.474-2.725-5.745-6.441-6.737-10.42l-2.078-8.35 7.502-2.974c.907-.36 1.732-1.004 2.33-1.865.573-.884.87-1.864.87-2.831v-8.805H51.85v8.805c0 .967.275 1.947.874 2.831.597.861 1.422 1.505 2.33 1.865l7.55 2.998z" transform="translate(18 15.36)"/>
            <path fill="#D66127" d="M84 89.249H0l3.561-11.314c.55-1.744 1.481-3.381 2.795-4.814 1.327-1.422 2.891-2.474 4.588-3.153l7.73-3.073 2.772-1.098s9.659 2.344 21.649 2.344c9.55 0 19.508-2.32 19.508-2.32l4.587 1.817.167.07 5.699 2.26c1.684.68 3.263 1.73 4.577 3.153 1.325 1.433 2.257 3.07 2.795 4.814L84 89.249z" transform="translate(18 15.36)"/>
            <path fill="#FEFEFE" d="M42 9.955c-9.9 0-16.969 7.231-16.969 22.518 0 12.938 7.604 23.868 16.968 23.868 9.362 0 16.959-10.93 16.959-23.868 0-15.287-7.06-22.518-16.959-22.518" transform="translate(18 15.36)"/>
            <path fill="#5B6770" d="M40.99 5.285c-8.716-.6-13.3 7.137-17.876 22.44.473.838-1.78 4.66-1.275 5.422l3.193-.674 7.06-13.11s3.923 3.818 12.885 9.374c5.447 3.378 15.893 5.45 15.893 5.45.916-1.367-.72.576.062-1.04C60.124 16.02 49.663 3.857 40.99 5.285" transform="translate(18 15.36)"/>
            <path fill="#5B6770" d="M65.464 27.208c-.082-6.185-1.171-13.74-5.207-19.26-3.15-4.31-9.31-7.31-16.076-7.834-7.258-.559-14.027 1.719-18.563 6.254-5.332 5.332-6.833 13.971-7.09 20.768-2.094.013-3.802 1.726-3.802 3.82v8.877c0 2.101 1.72 3.822 3.822 3.822h.794c2.102 0 3.822-1.72 3.822-3.822v-8.877c0-1.192-.562-2.247-1.425-2.948.156-6.344 1.386-14.595 6.155-19.364 3.868-3.87 9.713-5.806 16.038-5.321 5.857.453 11.115 2.952 13.727 6.523 3.597 4.92 4.527 11.957 4.568 17.716-1.24.635-2.105 1.913-2.105 3.394v6.53l-1.093-.244c-.077.331-1.91 7.507-13.525 8.599-.49-.556-1.198-.914-1.99-.914h-2.149c-1.466 0-2.666 1.2-2.666 2.666 0 1.465 1.2 2.664 2.666 2.664h2.149c.927 0 1.745-.48 2.223-1.204 8.636-.785 12.817-4.606 14.788-7.555.622 1.27 1.916 2.157 3.42 2.157h.795c2.102 0 3.822-1.72 3.822-3.822v-8.877c0-1.853-1.34-3.406-3.098-3.748" transform="translate(18 15.36)"/>
        </g>
    </g>
</svg>
