<svg xmlns="http://www.w3.org/2000/svg" width="18" height="20" viewBox="0 0 18 20">
    <g fill="none" fill-rule="evenodd">
        <path d="M0 0H20V20H0z" transform="translate(-1)"/>
        <path fill="#5B6770" d="M14.448 9.764c-1.12 4.363 1.411 5.429.963 6.693-.45 1.267-3.991 1.208-5.508 1.208-1.626 0-5.056.088-5.5-1.408-.378-1.276 1.952-1.57 1.062-6.612-.969-5.49 1.262-8.065 4.438-8.065 3.012 0 6.056 2.297 4.545 8.184" transform="translate(-1)"/>
        <path fill="#FEFEFE" d="M14.356 14.536l-.456 1.777c-.209.848-.696 1.641-1.438 2.222-.744.584-1.57.829-2.503.829s-1.758-.245-2.503-.829c-.741-.581-1.226-1.374-1.437-2.222l-.444-1.782 1.6-.635c.195-.076.37-.214.498-.397.122-.189.186-.398.186-.604v-1.879h4.203v1.879c0 .206.059.415.186.604.128.183.304.32.497.397l1.611.64z" transform="translate(-1)"/>
        <path fill="#D66127" d="M18.921 19.534H1l.76-2.413c.117-.372.316-.722.596-1.028.283-.303.617-.527.979-.672l1.649-.656.591-.234s2.061.5 4.62.5c2.037 0 4.161-.495 4.161-.495l.979.388.036.015 1.215.482c.36.145.696.37.977.672.282.306.481.656.596 1.028l.762 2.413z" transform="translate(-1)"/>
        <path fill="#FEFEFE" d="M9.96 2.617c-2.112 0-3.62 1.543-3.62 4.805 0 2.76 1.623 5.092 3.62 5.092 1.998 0 3.618-2.332 3.618-5.092 0-3.262-1.506-4.805-3.618-4.805" transform="translate(-1)"/>
        <path fill="#5B6770" d="M9.745 1.621c-1.86-.128-2.837 1.523-3.814 4.788.101.178-.38.994-.272 1.156l.681-.144 1.507-2.797s.837.815 2.749 2c1.162.721 3.39 1.163 3.39 1.163.196-.292-.153.123.014-.222-.173-3.654-2.405-6.249-4.255-5.944" transform="translate(-1)"/>
        <path fill="#5B6770" d="M14.967 6.298c-.018-1.32-.25-2.931-1.111-4.109-.672-.92-1.987-1.56-3.43-1.671-1.548-.12-2.993.366-3.96 1.334-1.138 1.138-1.458 2.98-1.513 4.43-.447.004-.811.369-.811.816v1.894c0 .448.367.815.815.815h.17c.448 0 .815-.367.815-.815V7.098c0-.254-.12-.48-.304-.63.033-1.353.296-3.113 1.313-4.13.825-.826 2.072-1.24 3.422-1.136 1.25.097 2.371.63 2.928 1.392.768 1.05.966 2.55.975 3.78-.265.135-.45.408-.45.724V8.49l-.232-.052c-.017.07-.408 1.602-2.886 1.834-.104-.118-.255-.194-.425-.194h-.458c-.313 0-.569.255-.569.568 0 .313.256.569.57.569h.457c.198 0 .373-.103.475-.257 1.842-.168 2.734-.983 3.155-1.612.132.27.409.46.73.46h.17c.447 0 .814-.367.814-.815V7.098c0-.396-.285-.727-.66-.8" transform="translate(-1)"/>
    </g>
</svg>
